<svg id="Layer_1" data-name="Layer 1" xmlns="http://www.w3.org/2000/svg" viewBox="0 0 100 60"><defs><style>.cls-1{fill:#46a8df;}.cls-2{fill:#1c1c1c;}</style></defs><path class="cls-1" d="M15.62,26.45c.06,4-2.35,8-7.84,8H1.62V18.75H7.78C13.15,18.75,15.55,22.58,15.62,26.45ZM4.56,31.58H7.78c3.56,0,5-2.6,4.9-5.15a4.65,4.65,0,0,0-4.9-4.88H4.56Z"/><path class="cls-1" d="M20.34,20.27a1.61,1.61,0,0,1-3.22,0A1.61,1.61,0,0,1,20.34,20.27Zm-3,3.07V34.43H20.1V23.34Z"/><path class="cls-1" d="M31.22,22.27l2,1.52L32,25.36a4.7,4.7,0,0,1,1.16,3.27,4.38,4.38,0,0,1-2.33,4.12,3.7,3.7,0,0,1,2.29,3.65c0,3-2.33,4.92-5.53,4.92s-5.6-2-5.6-4.92h2.71c0,1.43,1.32,2.37,2.89,2.37s2.8-.85,2.8-2.37S29,34.18,27.6,34.18c-3.45,0-5.6-2.11-5.6-5.55A5.39,5.39,0,0,1,27.6,23a4.43,4.43,0,0,1,2.53.62Zm-6.51,6.36a2.88,2.88,0,1,0,5.75,0,2.88,2.88,0,1,0-5.75,0Z"/><path class="cls-1" d="M37.9,20.27a1.62,1.62,0,0,1-3.23,0A1.62,1.62,0,0,1,37.9,20.27Zm-3,3.07V34.43h2.73V23.34Z"/><path class="cls-2" d="M41.86,26.21h9v1.14h-9v7.1H40.65V18.75H51.2V20H41.86Z"/><path class="cls-2" d="M53,28.89a5.56,5.56,0,0,1,5.62-5.71c3.12,0,5.89,1.91,5.47,6.23h-10a4.36,4.36,0,0,0,4.5,4.1,5.23,5.23,0,0,0,4-1.68l.78.62a6,6,0,0,1-4.77,2.13A5.43,5.43,0,0,1,53,28.89Zm10.1-.44c0-2.74-1.81-4.26-4.48-4.26a4.43,4.43,0,0,0-4.5,4.26Z"/><path class="cls-2" d="M65.66,23.36h1.21l4,9.79,4-9.79h1.21L71.51,34.43H70.3Z"/><path class="cls-2" d="M77.33,28.89A5.56,5.56,0,0,1,83,23.18c3.11,0,5.89,1.91,5.46,6.23h-10a4.35,4.35,0,0,0,4.5,4.1,5.21,5.21,0,0,0,4-1.68l.79.62A6.06,6.06,0,0,1,83,34.58,5.43,5.43,0,0,1,77.33,28.89Zm10.1-.44c0-2.74-1.82-4.26-4.48-4.26a4.42,4.42,0,0,0-4.5,4.26Z"/><path class="cls-2" d="M92.29,23.36l0,2A3.89,3.89,0,0,1,96,23.25a4.34,4.34,0,0,1,2.38.65l-.5.9A3.54,3.54,0,0,0,96,24.28,3.67,3.67,0,0,0,92.35,28v6.45H91.26V23.36Z"/><path class="cls-1" d="M61.53,37.15h.14l1,3,1-3H64l-1.17,3.32h-.27L62,38.92l-.42-1.31-.41,1.3-.53,1.56h-.28l-1.16-3.32h.27l1,3Z"/><path class="cls-1" d="M63.87,39.3a1.17,1.17,0,0,1,1.18-1.21,1.09,1.09,0,0,1,1.16,1.31H64.1a.92.92,0,0,0,1,.87,1.12,1.12,0,0,0,.85-.35l.16.13a1.26,1.26,0,0,1-1,.45A1.14,1.14,0,0,1,63.87,39.3ZM66,39.2a.85.85,0,0,0-1-.9.94.94,0,0,0-1,.9Z"/><path class="cls-1" d="M70.61,38.05a.72.72,0,0,1-.54.71.85.85,0,0,1,.65.84c0,.68-.63.86-1.2.86H68.16V37.15h1.36C70.08,37.15,70.61,37.42,70.61,38.05Zm-2.19.6h1.13c.4,0,.82-.12.82-.6s-.44-.68-.85-.68h-1.1Zm0,1.57h1.1c.42,0,1-.1,1-.63s-.47-.7-.92-.7H68.42Z"/><path class="cls-1" d="M73.18,40.46V40a.91.91,0,0,1-.84.46,1,1,0,0,1-1-1V38.12h.23v1.35a.75.75,0,0,0,.83.81.81.81,0,0,0,.82-.86v-1.3h.23v2.34Z"/><path class="cls-1" d="M74.32,37.36a.19.19,0,1,1-.37,0A.19.19,0,0,1,74.32,37.36Zm-.31.76v2.34h.24V38.12Z"/><path class="cls-1" d="M75.14,37.15v3.31h-.23V37.15Z"/><path class="cls-1" d="M78,37.15v3.31h-.23V40a1.18,1.18,0,1,1-1-1.86,1,1,0,0,1,1,.55V37.15ZM75.89,39.3a.91.91,0,0,0,1,1,1,1,0,0,0,0-2A.91.91,0,0,0,75.89,39.3Z"/><path class="cls-1" d="M82.5,38.05a.72.72,0,0,1-.54.71.85.85,0,0,1,.65.84c0,.68-.63.86-1.2.86H80.05V37.15h1.36C82,37.15,82.5,37.42,82.5,38.05Zm-2.19.6h1.13c.4,0,.82-.12.82-.6s-.44-.68-.85-.68h-1.1Zm0,1.57h1.1c.42,0,1-.1,1-.63s-.47-.7-.92-.7H80.31Z"/><path class="cls-1" d="M83.4,38.13v.41a.82.82,0,0,1,.78-.44.93.93,0,0,1,.5.14l-.11.19a.7.7,0,0,0-.39-.11.77.77,0,0,0-.78.78v1.36h-.23V38.13Z"/><path class="cls-1" d="M87.29,38.13v2.33h-.23V40a1.11,1.11,0,0,1-1,.53,1.2,1.2,0,0,1,0-2.4,1.06,1.06,0,0,1,1,.54v-.51ZM85.14,39.3a1,1,0,0,0,1,1,1,1,0,0,0,0-2A.94.94,0,0,0,85.14,39.3Z"/><path class="cls-1" d="M88.15,38.13v.41a.94.94,0,0,1,.83-.46,1,1,0,0,1,1.06,1v1.34H89.8V39.12a.75.75,0,0,0-.83-.81.81.81,0,0,0-.82.85v1.3h-.23V38.13Z"/><path class="cls-1" d="M92.89,37.15v3.31h-.23V40a1.18,1.18,0,1,1-1-1.86,1,1,0,0,1,1,.55V37.15ZM90.74,39.3a.91.91,0,0,0,1,1,1,1,0,0,0,0-2A.91.91,0,0,0,90.74,39.3Z"/><path class="cls-1" d="M95.16,38.55a1,1,0,0,0-.73-.24c-.37,0-.72.13-.71.43s.42.37.71.42,1,.14,1,.69-.55.65-1,.65a1.18,1.18,0,0,1-1-.47l.17-.15a1,1,0,0,0,.85.4c.29,0,.72-.08.73-.44s-.38-.41-.76-.47-.9-.16-.91-.63.46-.66.93-.65a1.21,1.21,0,0,1,.87.31Z"/></svg>