<svg id="Layer_1" data-name="Layer 1" xmlns="http://www.w3.org/2000/svg" viewBox="0 0 100 60"><defs><style>.cls-1{fill:#fff;}</style></defs><path class="cls-1" d="M15.53,28c.07,4-2.36,8-7.86,8H1.5V20.28H7.67C13.06,20.28,15.46,24.12,15.53,28ZM4.44,33.14H7.67c3.57,0,5-2.6,4.92-5.16s-1.5-4.89-4.92-4.89H4.44Z"/><path class="cls-1" d="M20.27,21.81a1.62,1.62,0,0,1-3.24,0A1.62,1.62,0,0,1,20.27,21.81Zm-3,3.07V36H20V24.88Z"/><path class="cls-1" d="M31.18,23.8l2,1.53L32,26.9a4.71,4.71,0,0,1,1.17,3.28,4.4,4.4,0,0,1-2.33,4.13A3.72,3.72,0,0,1,33.08,38c0,3.05-2.33,4.94-5.54,4.94S21.93,41,21.93,38h2.71c0,1.44,1.33,2.38,2.9,2.38s2.81-.85,2.81-2.38-1.44-2.22-2.81-2.22c-3.46,0-5.61-2.11-5.61-5.57a5.39,5.39,0,0,1,5.61-5.61,4.4,4.4,0,0,1,2.54.63Zm-6.54,6.38a2.89,2.89,0,1,0,5.77,0,2.89,2.89,0,1,0-5.77,0Z"/><path class="cls-1" d="M37.87,21.81a1.62,1.62,0,0,1-3.24,0A1.62,1.62,0,0,1,37.87,21.81Zm-3,3.07V36h2.74V24.88Z"/><path class="cls-1" d="M41.84,27.76h9V28.9h-9V36H40.63V20.28H51.2v1.21H41.84Z"/><path class="cls-1" d="M53,30.45a5.59,5.59,0,0,1,5.64-5.73c3.12,0,5.9,1.91,5.47,6.25h-10a4.37,4.37,0,0,0,4.52,4.1,5.2,5.2,0,0,0,4-1.68l.79.63a6.11,6.11,0,0,1-4.78,2.13A5.44,5.44,0,0,1,53,30.45ZM63.17,30c0-2.74-1.82-4.27-4.49-4.27A4.44,4.44,0,0,0,54.16,30Z"/><path class="cls-1" d="M65.7,24.9h1.21l4,9.81,4-9.81h1.21L71.56,36H70.35Z"/><path class="cls-1" d="M77.4,30.45A5.58,5.58,0,0,1,83,24.72c3.12,0,5.91,1.91,5.48,6.25h-10A4.36,4.36,0,0,0,83,35.07a5.22,5.22,0,0,0,4-1.68l.78.63A6.08,6.08,0,0,1,83,36.15,5.44,5.44,0,0,1,77.4,30.45ZM87.52,30c0-2.74-1.82-4.27-4.49-4.27A4.43,4.43,0,0,0,78.52,30Z"/><path class="cls-1" d="M92.39,24.9l0,2a3.91,3.91,0,0,1,3.68-2.09,4.34,4.34,0,0,1,2.38.65l-.49.9a3.6,3.6,0,0,0-1.89-.52,3.7,3.7,0,0,0-3.66,3.71V36h-1.1V24.9Z"/><path class="cls-1" d="M61.56,38.73h.14l1,3,1-3H64l-1.18,3.33h-.27l-.53-1.56-.42-1.31-.42,1.3-.53,1.57h-.27l-1.17-3.33h.27l1,3Z"/><path class="cls-1" d="M63.9,40.88a1.17,1.17,0,0,1,1.19-1.21A1.1,1.1,0,0,1,66.25,41H64.14a.92.92,0,0,0,1,.86,1.12,1.12,0,0,0,.85-.35l.16.13a1.26,1.26,0,0,1-1,.45A1.15,1.15,0,0,1,63.9,40.88Zm2.14-.1a.85.85,0,0,0-1-.9.94.94,0,0,0-1,.9Z"/><path class="cls-1" d="M70.66,39.63a.73.73,0,0,1-.54.71.87.87,0,0,1,.66.84c0,.68-.64.87-1.21.87H68.21V38.73h1.36C70.13,38.73,70.66,39,70.66,39.63Zm-2.2.6H69.6c.4,0,.82-.12.82-.6s-.44-.69-.85-.69H68.46Zm0,1.57h1.11c.42,0,1-.1,1-.62s-.47-.71-.92-.71H68.46Z"/><path class="cls-1" d="M73.24,42.05v-.42a1,1,0,0,1-.84.46,1,1,0,0,1-1.06-1V39.7h.23v1.35a.76.76,0,0,0,.84.81.82.82,0,0,0,.82-.86V39.7h.23v2.35Z"/><path class="cls-1" d="M74.38,38.94a.19.19,0,1,1-.37,0A.19.19,0,1,1,74.38,38.94Zm-.3.75v2.36h.23V39.69Z"/><path class="cls-1" d="M75.21,38.73v3.32H75V38.73Z"/><path class="cls-1" d="M78.11,38.73v3.32h-.23v-.52a1.11,1.11,0,0,1-1,.56,1.21,1.21,0,0,1,0-2.42,1,1,0,0,1,1,.55V38.73ZM76,40.88a.91.91,0,0,0,1,1,1,1,0,0,0,0-2A.91.91,0,0,0,76,40.88Z"/><path class="cls-1" d="M82.58,39.63a.73.73,0,0,1-.54.71.87.87,0,0,1,.66.84c0,.68-.64.87-1.21.87H80.13V38.73h1.36C82.05,38.73,82.58,39,82.58,39.63Zm-2.19.6h1.13c.4,0,.82-.12.82-.6s-.44-.69-.85-.69h-1.1Zm0,1.57h1.1c.42,0,1-.1,1-.62s-.48-.71-.93-.71H80.39Z"/><path class="cls-1" d="M83.49,39.7v.42a.82.82,0,0,1,.78-.44.86.86,0,0,1,.51.14l-.11.19a.71.71,0,0,0-.4-.11.77.77,0,0,0-.77.78v1.37h-.23V39.7Z"/><path class="cls-1" d="M87.38,39.7v2.35h-.23v-.5a1.09,1.09,0,0,1-1,.54,1.21,1.21,0,0,1,0-2.42,1.06,1.06,0,0,1,1,.55V39.7Zm-2.15,1.18a1,1,0,0,0,1,1,1,1,0,1,0,0-2A.94.94,0,0,0,85.23,40.88Z"/><path class="cls-1" d="M88.24,39.7v.42a1,1,0,0,1,.84-.46,1,1,0,0,1,1.06,1v1.35H89.9V40.7a.74.74,0,0,0-.83-.81.81.81,0,0,0-.82.85v1.31H88V39.7Z"/><path class="cls-1" d="M93,38.73v3.32h-.23v-.52a1.11,1.11,0,0,1-1,.56,1.21,1.21,0,0,1,0-2.42,1,1,0,0,1,1,.55V38.73Zm-2.16,2.15a.91.91,0,0,0,1,1,1,1,0,0,0,0-2A.92.92,0,0,0,90.84,40.88Z"/><path class="cls-1" d="M95.27,40.13a1,1,0,0,0-.73-.25c-.36,0-.71.14-.71.44s.42.37.72.42,1,.15,1,.69-.55.66-1,.66a1.21,1.21,0,0,1-1-.47l.17-.16a1,1,0,0,0,.86.4c.28,0,.71-.07.73-.44s-.38-.41-.77-.47-.9-.16-.91-.63.46-.66.93-.65a1.25,1.25,0,0,1,.88.31Z"/></svg>