<?xml version="1.0" encoding="utf-8"?>
<!-- Generator: Adobe Illustrator 22.1.0, SVG Export Plug-In . SVG Version: 6.00 Build 0)  -->
<svg version="1.1" id="Layer_1" xmlns="http://www.w3.org/2000/svg" xmlns:xlink="http://www.w3.org/1999/xlink" x="0px" y="0px"
	 viewBox="0 0 60.4 44.7" style="enable-background:new 0 0 60.4 44.7;" xml:space="preserve">
<style type="text/css">
	.st0{fill:#FFFFFF;}
	.st1{fill:none;stroke:#2D2D2D;stroke-width:1.7;stroke-linecap:round;stroke-linejoin:round;stroke-miterlimit:10;}
	.st2{fill:#F9E79B;}
	.st3{fill:#FED303;}
	.st4{fill:none;stroke:#2D2D2D;stroke-width:1.7698;stroke-linecap:round;stroke-linejoin:round;stroke-miterlimit:10;}
	.st5{fill:none;stroke:#2D2D2D;stroke-width:1.9344;stroke-linecap:round;stroke-linejoin:round;stroke-miterlimit:10;}
	.st6{fill:none;stroke:#2D2D2D;stroke-width:1.7;stroke-miterlimit:10;}
</style>
<path class="st0" d="M38.6,1l-4.5,4.5l-1.6,8.8L15.7,43.3c0,0,28.5,0.9,29.6,0.5c1.1-0.4,1.3-9.1,1.3-9.1l0.7-2.8l6-1.2l6.2-3.1
	c0,0,0.5-6.6,0-6.7c-0.5,0-10.6-5.7-10.6-5.7l-1.5-2.5l-3.5-3.7l-2-0.1l-2.4-7.8L38.6,1z"/>
<path class="st1" d="M22.1,19.2L5.5,4c0,0-0.6-0.6-1.6-0.1C3.4,4.2,1.3,6.4,1,7.1C0.6,8.1,1.2,9,1.2,9l19.9,18.1"/>
<path class="st2" d="M27,24.4"/>
<polygon class="st3" points="27,23.9 23.7,29.5 30.3,35.1 41.1,38.5 46,39 46,33.7 40,33.1 35.6,32.3 32.7,29.3 "/>
<path class="st4" d="M46.3,33.7c0,0-5.2-0.2-9.8-1.9s-8.8-7.4-8.8-7.4"/>
<path class="st5" d="M24,29.7c0,0,5,5.6,10.6,7.4S46.3,39,46.3,39"/>
<path class="st6" d="M52.9,17.9c-1.9-0.7-4.3-2.4-4.4-3.1c0-2.5-3.5-6-6-6h-0.3l-2.2-7.3c-0.1-0.5-0.6-0.8-1.1-0.7
	c-0.3,0-6.4,1.3-6.4,12.9c0,0.2-0.2,0.5-0.3,0.7c-0.2,0.4-0.4,0.8-0.6,1.2c-0.9,1.8-2,3.6-3,5.3c-2.3,3.9-3,5-4.7,7.9
	c-0.1,0.2-0.2,0.3-0.3,0.5c-3.2,5.2-4.8,7.8-5,8.1c-1,1.6-2,3.2-3,4.8c-0.2,0.3-0.2,0.7,0,1c0.2,0.3,0.5,0.5,0.9,0.5h29
	c0.6,0,1-0.4,1-1v-9c0-1.3,3.8-3,6-3c1.4,0,7-1.2,7-4v-4.5C59.6,20.5,55.9,18.9,52.9,17.9z"/>
</svg>
