<?xml version="1.0" encoding="utf-8"?>
<!-- Generator: Adobe Illustrator 22.1.0, SVG Export Plug-In . SVG Version: 6.00 Build 0)  -->
<svg version="1.1" id="Capa_1" xmlns="http://www.w3.org/2000/svg" xmlns:xlink="http://www.w3.org/1999/xlink" x="0px" y="0px"
	 viewBox="536.6 191.9 438.9 498.6" style="enable-background:new 536.6 191.9 438.9 498.6;" xml:space="preserve">
<style type="text/css">
	.st0{fill:#2D2D2D;}
	.st1{fill:#FED303;}
	.st2{fill:#F9E79B;}
</style>
<path class="st0" d="M608.3,687.8c-4.4-2.9-7.3-8.8-7.3-14.6l14.6-93.6c-49.7-42.4-79-102.4-79-168.2c0-121.4,98-219.4,219.4-219.4
	s219.4,98,219.4,219.4s-98,219.4-219.4,219.4c-14.6,0-29.3-1.5-42.4-4.4l-89.2,60C618.5,690.7,612.6,692.1,608.3,687.8z M756,222.6
	c-105.3,0-190.2,84.8-190.2,190.2c0,58.5,26.3,114.1,73.1,150.7c4.4,2.9,5.9,8.8,5.9,13.2l-10.2,68.8l67.3-45.3
	c2.9-2.9,7.3-2.9,11.7-1.5c14.6,2.9,27.8,4.4,42.4,4.4c105.3,0,190.2-84.8,190.2-190.2S861.3,222.6,756,222.6z"/>
<path class="st1" d="M954.5,413.6c0,109.2-89.3,198.5-198.5,198.5c-15.6,0-29.8-1.4-44-5.7l-92.2,62.4l14.2-97.9
	c-46.8-36.9-76.6-93.6-76.6-157.4c0-109.2,89.3-198.5,198.5-198.5S954.5,304.4,954.5,413.6z"/>
<g>
	<path class="st2" d="M950.3,373.9c-35.5-31.2-80.8-49.6-131.9-49.6c-109.2,0-198.5,89.3-198.5,198.5c0,14.2,1.4,26.9,4.3,39.7
		c-41.1-36.9-66.7-89.3-66.7-147.5c0-109.2,89.3-198.5,198.5-198.5C852.4,215.1,931.9,283.2,950.3,373.9z"/>
</g>
</svg>
